<?xml version="1.0" encoding="iso-8859-1"?>
<!-- Uploaded to: SVG Repo, www.svgrepo.com, Generator: SVG Repo Mixer Tools -->
<svg xmlns="http://www.w3.org/2000/svg" xmlns:xlink="http://www.w3.org/1999/xlink" version="1.1" id="Layer_1"  viewBox="0 0 501.993 501.993" xml:space="preserve" width="512" height="512">
<g>
	<g>
		<path style="fill:#CCCCCC;" d="M392.936,85.816L95.242,249.936l-46.99-25.341l-36.087,16.828l76.799,58.381    c9.113,6.928,21.315,8.236,31.69,3.398l2.715-1.266l36.626-17.079l313.966-150.121c14.609-6.812,22.353-21.126,15.54-35.735    l-2.846-6.104C476.036,70.123,444.845,60.785,392.936,85.816z"/>
		<polygon style="fill:#CCCCCC;" points="140.725,89.472 87.821,114.142 222.135,216.245 304.544,177.817   "/>
	</g>
	<g>
		<path d="M498.565,94.775l-2.847-6.104c-5.362-11.499-14.686-19.892-26.962-24.27c-20.473-7.301-48.193-3.01-80.165,12.408    c-0.164,0.079-0.325,0.162-0.484,0.25l-123.293,67.972L145.472,80.67c-2.782-1.5-6.11-1.597-8.973-0.261l-52.904,24.669    c-3.175,1.48-5.343,4.514-5.717,7.997s1.103,6.907,3.891,9.027l94.428,71.783l-81.009,44.661l-42.191-22.753    c-2.782-1.5-6.11-1.597-8.973-0.261L7.938,232.359c-3.175,1.48-5.343,4.514-5.717,7.997s1.103,6.908,3.891,9.027l76.799,58.381    c7.253,5.514,15.933,8.343,24.691,8.343c5.858,0,11.753-1.267,17.276-3.842l39.43-18.386l313.878-150.08    c9.419-4.392,16.75-11.419,20.644-19.788C503.137,114.758,503.042,104.375,498.565,94.775z M140.399,100.658l141.874,76.511    l-28.366,13.227L219.11,164.81c-4.449-3.271-10.708-2.317-13.98,2.133c-3.271,4.449-2.317,10.708,2.133,13.98l25.985,19.106    l-9.866,4.601l-116.322-88.425L140.399,100.658z M469.648,125.714L155.77,275.794l-39.342,18.345    c-7.03,3.279-15.235,2.399-21.412-2.296l-63.613-48.357l16.523-7.705l42.569,22.958c2.991,1.614,6.597,1.596,9.575-0.044    l93.542-51.57l22.471,17.083c1.772,1.347,3.904,2.039,6.053,2.039c1.435,0,2.877-0.309,4.225-0.937l82.408-38.427    c3.427-1.598,5.66-4.992,5.77-8.772c0.11-3.779-1.921-7.298-5.249-9.093l-23.534-12.692l111.766-61.617    c25.401-12.208,47.441-16.442,62.487-12.092l-36.886,18.443c-4.94,2.47-6.942,8.477-4.472,13.417    c1.752,3.504,5.284,5.53,8.952,5.53c1.502,0,3.029-0.34,4.464-1.058l45.134-22.567c0.126,0.251,0.271,0.486,0.391,0.743    l2.847,6.104C485.374,113.81,477.757,121.932,469.648,125.714z"/>
		<path d="M369.222,371.663H31.331c-5.523,0-10,4.477-10,10s4.477,10,10,10h337.891c5.523,0,10-4.477,10-10    S374.745,371.663,369.222,371.663z"/>
		<path d="M455.659,371.663h-35.922c-5.523,0-10,4.477-10,10s4.477,10,10,10h35.922c5.523,0,10-4.477,10-10    S461.182,371.663,455.659,371.663z"/>
		<path d="M250.23,421.055H85.214c-5.523,0-10,4.477-10,10s4.477,10,10,10H250.23c5.523,0,10-4.477,10-10    S255.753,421.055,250.23,421.055z"/>
		<path d="M10.006,191.849c1.254,0,2.531-0.238,3.765-0.74l66.231-26.942c5.116-2.081,7.576-7.915,5.495-13.031    c-2.081-5.115-7.913-7.574-13.031-5.495L6.234,172.584c-5.116,2.081-7.576,7.915-5.495,13.031    C2.319,189.497,6.058,191.849,10.006,191.849z"/>
	</g>
</g>















</svg>