<svg width="160" height="160" viewBox="0 0 160 160" fill="none" xmlns="http://www.w3.org/2000/svg">
<circle cx="80" cy="80" r="80" fill="#160042"/>
<path d="M74.7754 80.0007C89.1921 80.0007 100.879 68.3137 100.879 53.897C100.879 68.3137 112.566 80.0007 126.983 80.0007C112.566 80.0007 100.879 91.6878 100.879 106.104C100.879 91.6878 89.1921 80.0007 74.7754 80.0007Z" fill="#F7F8FD" stroke="#F7F8FD" stroke-width="7.83112" stroke-linecap="round" stroke-linejoin="round"/>
<path d="M59.1133 51.2867C63.4383 51.2867 66.9444 47.7806 66.9444 43.4556C66.9444 47.7806 70.4505 51.2867 74.7755 51.2867C70.4505 51.2867 66.9444 54.7928 66.9444 59.1178C66.9444 54.7928 63.4383 51.2867 59.1133 51.2867Z" stroke="#F7F8FD" stroke-width="7.83112" stroke-linecap="round" stroke-linejoin="round"/>
<path d="M33.0098 74.7798C35.8931 74.7798 38.2305 72.4424 38.2305 69.5591C38.2305 72.4424 40.5679 74.7798 43.4513 74.7798C40.5679 74.7798 38.2305 77.1172 38.2305 80.0006C38.2305 77.1172 35.8931 74.7798 33.0098 74.7798Z" stroke="#F7F8FD" stroke-width="7.83112" stroke-linecap="round" stroke-linejoin="round"/>
<path d="M43.4512 106.105C52.1012 106.105 59.1134 99.0924 59.1134 90.4424C59.1134 99.0924 66.1256 106.105 74.7757 106.105C66.1256 106.105 59.1134 113.117 59.1134 121.767C59.1134 113.117 52.1012 106.105 43.4512 106.105Z" fill="#F7F8FD" stroke="#F7F8FD" stroke-width="7.83112" stroke-linecap="round" stroke-linejoin="round"/>
</svg>
